<svg width="19" height="20" viewBox="0 0 19 20" fill="none" xmlns="http://www.w3.org/2000/svg">
<path d="M5.3134 19.4682C4.4034 19.4682 3.5584 19.2515 2.80007 18.8182C1.06674 17.8215 0.0700684 15.7848 0.0700684 13.2065V6.79316C0.0700684 4.23649 1.06674 2.17815 2.80007 1.18149C4.5334 0.184821 6.78674 0.336489 9.0184 1.63649L14.5867 4.84315C16.7967 6.12149 18.0751 8.00649 18.0751 9.99982C18.0751 11.9932 16.7967 13.8782 14.5867 15.1565L9.0184 18.3632C7.76174 19.0998 6.4834 19.4682 5.3134 19.4682ZM5.33507 3.78149C4.9884 3.78149 4.68507 3.84649 4.44673 3.99815C3.7534 4.40982 3.34174 5.42816 3.34174 6.79316V13.2065C3.34174 14.5715 3.73173 15.5898 4.44673 16.0015C5.14007 16.4132 6.2234 16.2398 7.41507 15.5465L12.9834 12.3398C14.1751 11.6465 14.8467 10.8015 14.8467 9.99982C14.8467 9.19815 14.1751 8.33149 12.9834 7.65982L7.41507 4.45315C6.63507 3.99815 5.92007 3.78149 5.33507 3.78149Z" fill="#E2E2E2"/>
</svg>
